<svg width="12" height="16" viewBox="0 0 12 16" fill="none" xmlns="http://www.w3.org/2000/svg">
<path d="M7.29289 0H2C0.89543 0 0 0.895431 0 2V14C0 15.1046 0.89543 16 2 16H10C11.1046 16 12 15.1046 12 14V4.70711C12 4.44189 11.8946 4.18754 11.7071 4L8 0.292893C7.81246 0.105357 7.55811 0 7.29289 0ZM7.5 3.5V1.5L10.5 4.5H8.5C7.94772 4.5 7.5 4.05228 7.5 3.5ZM9 6.64039V8.39039L7 8.89038V12.5C7 12.9953 6.69885 13.3826 6.33801 13.6231C5.97368 13.866 5.49916 14 5 14C4.50084 14 4.02632 13.866 3.66199 13.6231C3.30115 13.3826 3 12.9953 3 12.5C3 12.0047 3.30115 11.6174 3.66199 11.3769C4.02632 11.134 4.50084 11 5 11C5.35625 11 5.69995 11.0682 6 11.1956V6.89039C6 6.43152 6.3123 6.03153 6.75746 5.92024L7.75746 5.67024C8.38861 5.51246 9 5.98981 9 6.64039Z" fill="white"/>
</svg>
