<svg width="12" height="16" viewBox="0 0 12 16" fill="none" xmlns="http://www.w3.org/2000/svg">
<path d="M7.29289 0H2C0.89543 0 0 0.895431 0 2V14C0 15.1046 0.89543 16 2 16H10C11.1046 16 12 15.1046 12 14V4.70711C12 4.44189 11.8946 4.18754 11.7071 4L8 0.292893C7.81246 0.105357 7.55811 0 7.29289 0ZM7.5 3.5V1.5L10.5 4.5H8.5C7.94772 4.5 7.5 4.05228 7.5 3.5ZM4.64645 7.64645C4.84171 7.45118 5.15829 7.45118 5.35355 7.64645C5.54882 7.84171 5.54882 8.15829 5.35355 8.35355L3.70711 10L5.35355 11.6464C5.54882 11.8417 5.54882 12.1583 5.35355 12.3536C5.15829 12.5488 4.84171 12.5488 4.64645 12.3536L2.64645 10.3536C2.45118 10.1583 2.45118 9.84171 2.64645 9.64645L4.64645 7.64645ZM7.35355 7.64645L9.35355 9.64645C9.54882 9.84171 9.54882 10.1583 9.35355 10.3536L7.35355 12.3536C7.15829 12.5488 6.84171 12.5488 6.64645 12.3536C6.45118 12.1583 6.45118 11.8417 6.64645 11.6464L8.29289 10L6.64645 8.35355C6.45118 8.15829 6.45118 7.84171 6.64645 7.64645C6.84171 7.45118 7.15829 7.45118 7.35355 7.64645Z" fill="white"/>
</svg>
