<svg width="61" height="56" viewBox="0 0 61 56" fill="none" xmlns="http://www.w3.org/2000/svg">
<path d="M40.5768 2.58865C40.907 1.53295 40.3047 0.413804 39.2314 0.0889719C38.158 -0.23586 37.0202 0.356629 36.69 1.41233L20.4233 53.4113C20.093 54.4671 20.6954 55.5862 21.7687 55.911C22.8421 56.2359 23.9799 55.6434 24.3101 54.5877L40.5768 2.58865Z" fill="black" fill-opacity="0.13"/>
<path d="M17.7044 12.586C18.4985 13.3671 18.4985 14.6334 17.7044 15.4144L4.9089 28L17.7044 40.5855C18.4985 41.3665 18.4985 42.6328 17.7044 43.4139C16.9104 44.1949 15.6229 44.1949 14.8289 43.4139L0.59555 29.4141C-0.198516 28.6331 -0.198516 27.3668 0.59555 26.5858L14.8289 12.586C15.6229 11.805 16.9104 11.805 17.7044 12.586Z" fill="black" fill-opacity="0.13"/>
<path d="M43.2955 12.586C42.5015 13.3671 42.5015 14.6334 43.2955 15.4144L56.0911 28L43.2955 40.5855C42.5015 41.3665 42.5015 42.6328 43.2955 43.4139C44.0896 44.1949 45.377 44.1949 46.1711 43.4139L60.4044 29.4141C61.1985 28.6331 61.1985 27.3668 60.4044 26.5858L46.1711 12.586C45.377 11.805 44.0896 11.805 43.2955 12.586Z" fill="black" fill-opacity="0.13"/>
</svg>
