<svg width="62" height="51" viewBox="0 0 62 51" fill="none" xmlns="http://www.w3.org/2000/svg">
<path d="M32.9375 6.96953C35.4702 4.28948 39.8428 3.52173 44.9977 4.04395C49.7786 4.52828 54.6957 6.07864 58.125 7.51776V46.1391C54.5689 44.7773 49.9606 43.4461 45.3866 42.9827C41.15 42.5535 36.5602 42.8367 32.9375 44.8995V6.96953ZM31 3.45262C27.1835 0.157741 21.649 -0.338444 16.6134 0.171686C10.7462 0.766057 4.82277 2.78821 1.13576 4.47144C0.44408 4.78721 0 5.47988 0 6.24298V49.054C0 49.7157 0.334707 50.332 0.888565 50.6901C1.44242 51.0483 2.13954 51.0994 2.73924 50.8256C6.15639 49.2655 11.6642 47.3958 17.0023 46.855C22.4582 46.3023 27.0377 47.1946 29.4871 50.2696C29.8547 50.7313 30.4114 51 31 51C31.5886 51 32.1453 50.7313 32.5129 50.2696C34.9623 47.1946 39.5418 46.3023 44.9977 46.855C50.3358 47.3958 55.8436 49.2655 59.2608 50.8256C59.8605 51.0994 60.5576 51.0483 61.1114 50.6901C61.6653 50.332 62 49.7157 62 49.054V6.24298C62 5.47988 61.5559 4.78721 60.8642 4.47144C57.1772 2.78821 51.2538 0.766057 45.3866 0.171686C40.351 -0.338444 34.8165 0.157741 31 3.45262Z" fill="white" fill-opacity="0.13"/>
</svg>
