<svg width="43" height="46" viewBox="0 0 43 46" fill="none" xmlns="http://www.w3.org/2000/svg">
<path d="M42.3202 0.214691C42.7428 0.476613 43 0.939296 43 1.4375V44.5625C43 45.3564 42.3583 46 41.5667 46H32.9667C32.1751 46 31.5333 45.3564 31.5333 44.5625V40.25H28.6667V44.5625C28.6667 45.3564 28.0249 46 27.2333 46H1.43333C0.641725 46 0 45.3564 0 44.5625V28.75C0 28.1313 0.394783 27.5819 0.980073 27.3863L17.2 21.9639V12.9375C17.2 12.393 17.5067 11.8953 17.9923 11.6518L40.9257 0.151762C41.37 -0.0710418 41.8976 -0.047231 42.3202 0.214691ZM17.2 24.9944L2.86667 29.7861V43.125H17.2V24.9944ZM20.0667 43.125H25.8V38.8125C25.8 38.0186 26.4417 37.375 27.2333 37.375H32.9667C33.7583 37.375 34.4 38.0186 34.4 38.8125V43.125H40.1333V3.76343L20.0667 13.8259V43.125Z" fill="white" fill-opacity="0.13"/>
<path d="M5.73333 31.625H8.6V34.5H5.73333V31.625Z" fill="white" fill-opacity="0.13"/>
<path d="M11.4667 31.625H14.3333V34.5H11.4667V31.625Z" fill="white" fill-opacity="0.13"/>
<path d="M5.73333 37.375H8.6V40.25H5.73333V37.375Z" fill="white" fill-opacity="0.13"/>
<path d="M11.4667 37.375H14.3333V40.25H11.4667V37.375Z" fill="white" fill-opacity="0.13"/>
<path d="M22.9333 25.875H25.8V28.75H22.9333V25.875Z" fill="white" fill-opacity="0.13"/>
<path d="M28.6667 25.875H31.5333V28.75H28.6667V25.875Z" fill="white" fill-opacity="0.13"/>
<path d="M22.9333 31.625H25.8V34.5H22.9333V31.625Z" fill="white" fill-opacity="0.13"/>
<path d="M28.6667 31.625H31.5333V34.5H28.6667V31.625Z" fill="white" fill-opacity="0.13"/>
<path d="M34.4 25.875H37.2667V28.75H34.4V25.875Z" fill="white" fill-opacity="0.13"/>
<path d="M34.4 31.625H37.2667V34.5H34.4V31.625Z" fill="white" fill-opacity="0.13"/>
<path d="M22.9333 20.125H25.8V23H22.9333V20.125Z" fill="white" fill-opacity="0.13"/>
<path d="M28.6667 20.125H31.5333V23H28.6667V20.125Z" fill="white" fill-opacity="0.13"/>
<path d="M34.4 20.125H37.2667V23H34.4V20.125Z" fill="white" fill-opacity="0.13"/>
<path d="M22.9333 14.375H25.8V17.25H22.9333V14.375Z" fill="white" fill-opacity="0.13"/>
<path d="M28.6667 14.375H31.5333V17.25H28.6667V14.375Z" fill="white" fill-opacity="0.13"/>
<path d="M34.4 14.375H37.2667V17.25H34.4V14.375Z" fill="white" fill-opacity="0.13"/>
<path d="M34.4 8.625H37.2667V11.5H34.4V8.625Z" fill="white" fill-opacity="0.13"/>
</svg>
