<svg width="96" height="79" viewBox="0 0 96 79" fill="none" xmlns="http://www.w3.org/2000/svg">
<path d="M51 10.7959C54.9216 6.64448 61.6921 5.45523 69.6739 6.26416C77.0766 7.01439 84.6901 9.41594 90 11.6452V71.4703C84.4938 69.3608 77.3584 67.2989 70.2761 66.5811C63.7161 65.9163 56.6093 66.3548 51 69.5503V10.7959ZM48 5.34817C42.0905 0.244344 33.521 -0.524257 25.7239 0.265945C16.6393 1.18664 7.46752 4.31899 1.75859 6.92635C0.687608 7.41549 0 8.48844 0 9.67049V75.9857C0 77.0105 0.518256 77.9652 1.37584 78.52C2.23343 79.0749 3.31284 79.1539 4.24141 78.7298C9.53248 76.3133 18.0607 73.417 26.3261 72.5793C34.7739 71.7231 41.8648 73.1053 45.6574 77.8687C46.2267 78.5837 47.0886 79 48 79C48.9114 79 49.7733 78.5837 50.3426 77.8687C54.1352 73.1053 61.2261 71.7231 69.6739 72.5793C77.9393 73.417 86.4675 76.3133 91.7586 78.7298C92.6872 79.1539 93.7666 79.0749 94.6242 78.52C95.4817 77.9652 96 77.0105 96 75.9857V9.67049C96 8.48844 95.3124 7.41549 94.2414 6.92635C88.5325 4.31899 79.3607 1.18664 70.2761 0.265945C62.479 -0.524257 53.9095 0.244344 48 5.34817Z" fill="black" fill-opacity="0.13"/>
</svg>
