<svg width="53" height="57" viewBox="0 0 53 57" fill="none" xmlns="http://www.w3.org/2000/svg">
<path d="M22.7143 0C16.758 0 11.2739 1.09768 7.20804 2.95279C3.31301 4.72994 0 7.57342 0 11.4C0 15.2266 3.31301 18.0701 7.20804 19.8472C11.2739 21.7023 16.758 22.8 22.7143 22.8C28.6706 22.8 34.1546 21.7023 38.2205 19.8472C42.1156 18.0701 45.4286 15.2266 45.4286 11.4C45.4286 7.57342 42.1156 4.72994 38.2205 2.95279C34.1546 1.09768 28.6706 0 22.7143 0Z" fill="black" fill-opacity="0.13"/>
<path d="M0 22.8V19.6118C1.73108 21.2525 3.80173 22.4672 5.6415 23.3066C10.3034 25.4337 16.3449 26.6 22.7143 26.6C29.0837 26.6 35.1252 25.4337 39.7871 23.3066C41.6268 22.4672 43.6975 21.2525 45.4286 19.6118V22.8C45.4286 24.4109 44.8415 25.8475 43.871 27.1037C42.5514 26.7747 41.171 26.6 39.75 26.6C33.8821 26.6 28.7071 29.578 25.6431 34.1105C24.6828 34.1696 23.7051 34.2 22.7143 34.2C16.758 34.2 11.2739 33.1023 7.20804 31.2472C3.31301 29.4701 0 26.6266 0 22.8Z" fill="black" fill-opacity="0.13"/>
<path d="M23.6869 37.9909C23.3636 37.997 23.0394 38 22.7143 38C16.3449 38 10.3034 36.8337 5.6415 34.7066C3.80173 33.8672 1.73108 32.6525 0 31.0118V34.2C0 38.0266 3.31301 40.8701 7.20804 42.6472C11.2739 44.5023 16.758 45.6 22.7143 45.6C22.749 45.6 22.7836 45.6 22.8183 45.5999C22.7496 44.9761 22.7143 44.3422 22.7143 43.7C22.7143 41.698 23.0571 39.7763 23.6869 37.9909Z" fill="black" fill-opacity="0.13"/>
<path d="M23.6805 49.391C23.3594 49.397 23.0372 49.4 22.7143 49.4C16.3449 49.4 10.3034 48.2336 5.6415 46.1066C3.80173 45.2672 1.73108 44.0525 0 42.4118V45.6C0 49.4266 3.31301 52.2701 7.20804 54.0472C11.2739 55.9023 16.758 57 22.7143 57C24.7443 57 26.7195 56.8725 28.6024 56.631C26.389 54.7067 24.6747 52.2194 23.6805 49.391Z" fill="black" fill-opacity="0.13"/>
<path d="M37.4235 32.1463C38.1072 29.8179 41.3928 29.8179 42.0765 32.1463L42.2423 32.7109C42.6791 34.1986 44.372 34.9025 45.7289 34.1606L46.2439 33.879C48.3676 32.7179 50.6908 35.0499 49.5341 37.1815L49.2535 37.6985C48.5144 39.0605 49.2156 40.7598 50.6978 41.1983L51.2603 41.3647C53.5799 42.051 53.5799 45.349 51.2603 46.0352L50.6978 46.2017C49.2156 46.6402 48.5144 48.3394 49.2535 49.7015L49.5341 50.2184C50.6908 52.3501 48.3676 54.6821 46.2439 53.521L45.7289 53.2394C44.372 52.4975 42.6791 53.2013 42.2423 54.6891L42.0765 55.2537C41.3928 57.5821 38.1072 57.5821 37.4235 55.2537L37.2577 54.6891C36.8209 53.2013 35.128 52.4975 33.7711 53.2394L33.2561 53.521C31.1324 54.6821 28.8092 52.3501 29.9659 50.2184L30.2465 49.7015C30.9856 48.3394 30.2844 46.6402 28.8022 46.2017L28.2397 46.0352C25.9201 45.349 25.9201 42.051 28.2397 41.3647L28.8022 41.1983C30.2844 40.7598 30.9856 39.0605 30.2465 37.6985L29.9659 37.1815C28.8092 35.0499 31.1324 32.7179 33.2561 33.879L33.7711 34.1606C35.128 34.9025 36.8209 34.1986 37.2577 32.7109L37.4235 32.1463ZM45.4286 43.7C45.4286 40.552 42.8862 38 39.75 38C36.6138 38 34.0714 40.552 34.0714 43.7C34.0714 46.848 36.6138 49.4 39.75 49.4C42.8862 49.4 45.4286 46.848 45.4286 43.7Z" fill="black" fill-opacity="0.13"/>
</svg>
