<svg width="54" height="54" viewBox="0 0 54 54" fill="none" xmlns="http://www.w3.org/2000/svg">
<path fill-rule="evenodd" clip-rule="evenodd" d="M35.6021 0.555122C36.3422 -0.185041 37.5423 -0.185041 38.2824 0.555122L53.4449 15.7176C54.185 16.4577 54.185 17.6578 53.4449 18.3979L46.2349 25.6079L43.0945 38.1693C42.6082 40.1147 41.133 41.6601 39.2122 42.2363L0 54L11.7637 14.7878C12.3399 12.867 13.8853 11.3918 15.8307 10.9055L28.3921 7.76513L35.6021 0.555122ZM28.7797 11.5755L16.7501 14.5829C16.1016 14.745 15.5865 15.2367 15.3944 15.877L5.65359 48.3464L38.123 38.6056C38.7633 38.4135 39.255 37.8984 39.4171 37.2499L42.4245 25.2203L28.7797 11.5755Z" fill="black" fill-opacity="0.13"/>
<path fill-rule="evenodd" clip-rule="evenodd" d="M5.98041 48.2484L25.5706 32.2202C27.6641 32.2202 29.3612 30.5231 29.3612 28.4296C29.3612 26.3361 27.6641 24.639 25.5706 24.639C23.4771 24.639 21.78 26.3361 21.78 28.4296L5.7516 48.0196L5.65359 48.3464L5.98041 48.2484Z" fill="black" fill-opacity="0.13"/>
</svg>
