<svg width="14" height="16" viewBox="0 0 14 16" fill="none" xmlns="http://www.w3.org/2000/svg">
<path d="M7.5 10C7.22386 10 7 9.55229 7 9C7 8.44772 7.22386 8 7.5 8C7.77614 8 8 8.44772 8 9C8 9.55229 7.77614 10 7.5 10Z" fill="black"/>
<path d="M9.8276 0.122276C9.9371 0.217245 10 0.355058 10 0.500003V1H10.5C11.3284 1 12 1.67158 12 2.5V15H13.5C13.7761 15 14 15.2239 14 15.5C14 15.7761 13.7761 16 13.5 16H0.5C0.223858 16 0 15.7761 0 15.5C0 15.2239 0.223858 15 0.5 15H2V1.5C2 1.25118 2.18297 1.04022 2.42929 1.00503L9.42929 0.00502854C9.57278 -0.0154699 9.7181 0.0273076 9.8276 0.122276ZM10.5 2H10V15H11V2.5C11 2.22386 10.7761 2 10.5 2ZM3 1.93365V15H9V1.07651L3 1.93365Z" fill="black"/>
</svg>
