<svg width="12" height="16" viewBox="0 0 12 16" fill="none" xmlns="http://www.w3.org/2000/svg">
<path d="M7.29289 0H2C0.89543 0 0 0.895431 0 2V14C0 15.1046 0.89543 16 2 16H10C11.1046 16 12 15.1046 12 14V4.70711C12 4.44189 11.8946 4.18754 11.7071 4L8 0.292893C7.81246 0.105357 7.55811 0 7.29289 0ZM7.5 3.5V1.5L10.5 4.5H8.5C7.94772 4.5 7.5 4.05228 7.5 3.5ZM3.88412 6.67992L6.00001 9.21899L8.1159 6.67992C8.29268 6.46778 8.60797 6.43912 8.8201 6.6159C9.03224 6.79268 9.06091 7.10797 8.88412 7.3201L6.65087 10L8.88412 12.6799C9.06091 12.8921 9.03224 13.2073 8.8201 13.3841C8.60797 13.5609 8.29268 13.5322 8.1159 13.3201L6.00001 10.781L3.88412 13.3201C3.70734 13.5322 3.39206 13.5609 3.17992 13.3841C2.96778 13.2073 2.93912 12.8921 3.1159 12.6799L5.34916 10L3.1159 7.3201C2.93912 7.10797 2.96778 6.79268 3.17992 6.6159C3.39206 6.43912 3.70734 6.46778 3.88412 6.67992Z" fill="#185C37"/>
</svg>
