<svg width="50" height="50" viewBox="0 0 50 50" fill="none" xmlns="http://www.w3.org/2000/svg">
<path d="M25.0001 14.8569C19.3983 14.8569 14.8571 19.3981 14.8571 24.9999C14.8571 30.6017 19.3983 35.1429 25.0001 35.1429C30.6019 35.1429 35.1431 30.6017 35.1431 24.9999C35.1431 19.3981 30.6019 14.8569 25.0001 14.8569ZM17.9821 24.9999C17.9821 21.124 21.1242 17.9819 25.0001 17.9819C28.876 17.9819 32.0181 21.124 32.0181 24.9999C32.0181 28.8759 28.876 32.0179 25.0001 32.0179C21.1242 32.0179 17.9821 28.8759 17.9821 24.9999Z" fill="white" fill-opacity="0.13"/>
<path d="M30.614 4.19805C28.9642 -1.39935 21.0358 -1.39935 19.386 4.19805L19.0927 5.1931C18.6014 6.85998 16.6975 7.6486 15.1715 6.81734L14.2605 6.32113C9.13592 3.52977 3.52977 9.13594 6.32113 14.2605L6.81734 15.1715C7.6486 16.6975 6.85998 18.6014 5.1931 19.0927L4.19805 19.386C-1.39935 21.0359 -1.39935 28.9642 4.19805 30.614L5.1931 30.9073C6.85998 31.3986 7.6486 33.3025 6.81734 34.8285L6.32113 35.7395C3.52977 40.8641 9.13592 46.4702 14.2605 43.6789L15.1715 43.1827C16.6975 42.3514 18.6014 43.14 19.0927 44.8069L19.386 45.802C21.0358 51.3994 28.9642 51.3993 30.614 45.802L30.9073 44.8069C31.3986 43.14 33.3025 42.3514 34.8285 43.1827L35.7395 43.6789C40.8641 46.4702 46.4702 40.8641 43.6789 35.7395L43.1827 34.8285C42.3514 33.3025 43.14 31.3986 44.8069 30.9073L45.8019 30.614C51.3993 28.9642 51.3993 21.0358 45.8019 19.386L44.8069 19.0927C43.14 18.6014 42.3514 16.6975 43.1827 15.1715L43.6789 14.2605C46.4702 9.13591 40.8641 3.52978 35.7395 6.32113L34.8285 6.81735C33.3025 7.6486 31.3986 6.85998 30.9073 5.1931L30.614 4.19805ZM22.3835 5.08156C23.1525 2.47281 26.8475 2.47282 27.6165 5.08156L27.9098 6.07661C28.9639 9.65311 33.049 11.3452 36.3234 9.56164L37.2343 9.06542C39.6227 7.76447 42.2355 10.3773 40.9346 12.7657L40.4384 13.6767C38.6548 16.951 40.3469 21.0361 43.9234 22.0902L44.9184 22.3835C47.5272 23.1525 47.5272 26.8475 44.9184 27.6165L43.9234 27.9098C40.3469 28.9639 38.6548 33.049 40.4384 36.3234L40.9346 37.2343C42.2355 39.6227 39.6227 42.2355 37.2343 40.9346L36.3234 40.4384C33.049 38.6548 28.9639 40.3469 27.9098 43.9234L27.6165 44.9184C26.8475 47.5272 23.1525 47.5272 22.3835 44.9184L22.0902 43.9234C21.0361 40.3469 16.951 38.6548 13.6766 40.4384L12.7657 40.9346C10.3773 42.2355 7.76447 39.6227 9.06542 37.2343L9.56163 36.3234C11.3452 33.049 9.65311 28.9639 6.07661 27.9098L5.08156 27.6165C2.47281 26.8475 2.47281 23.1525 5.08156 22.3835L6.07661 22.0902C9.65311 21.0361 11.3452 16.951 9.56164 13.6767L9.06542 12.7657C7.76447 10.3773 10.3773 7.76447 12.7657 9.06542L13.6766 9.56163C16.951 11.3452 21.0361 9.65311 22.0902 6.07661L22.3835 5.08156Z" fill="white" fill-opacity="0.13"/>
</svg>
