<svg width="15" height="14" viewBox="0 0 15 14" fill="none" xmlns="http://www.w3.org/2000/svg">
<path d="M8.20711 0.297291C7.81658 -0.099096 7.18342 -0.0990982 6.79289 0.297291L0.146447 7.04354C-0.0488155 7.24173 -0.0488155 7.56307 0.146447 7.76126C0.341709 7.95946 0.658291 7.95946 0.853553 7.76126L1.5 7.10511V12.4775C1.5 13.3183 2.17157 14 3 14H12C12.8284 14 13.5 13.3183 13.5 12.4775V7.10511L14.1464 7.76126C14.3417 7.95946 14.6583 7.95946 14.8536 7.76126C15.0488 7.56307 15.0488 7.24173 14.8536 7.04354L12.5 4.65464V1.31231C12.5 1.03202 12.2761 0.804799 12 0.804799H11C10.7239 0.804799 10.5 1.03202 10.5 1.31231V2.62461L8.20711 0.297291ZM12.5 6.09009V12.4775C12.5 12.7578 12.2761 12.985 12 12.985H3C2.72386 12.985 2.5 12.7578 2.5 12.4775V6.09009L7.5 1.01502L12.5 6.09009Z" fill="black"/>
</svg>
