<svg width="12" height="16" viewBox="0 0 12 16" fill="none" xmlns="http://www.w3.org/2000/svg">
<path d="M2 0H7.29289C7.55811 0 7.81246 0.105357 8 0.292893L11.7071 4C11.8946 4.18754 12 4.44189 12 4.70711V10.2929L9.27091 7.5638C8.83396 7.12685 8.10924 7.18683 7.75007 7.68967L5.86143 10.3338L4.092 9.27211C3.69853 9.03602 3.19487 9.09802 2.8704 9.42249L0 12.2929V2C0 0.895431 0.89543 0 2 0ZM7.5 1.5V3.5C7.5 4.05228 7.94772 4.5 8.5 4.5H10.5L7.5 1.5ZM6.00153 5.5C6.00153 4.67157 5.32995 4 4.50153 4C3.6731 4 3.00153 4.67157 3.00153 5.5C3.00153 6.32843 3.6731 7 4.50153 7C5.32995 7 6.00153 6.32843 6.00153 5.5Z" fill="white"/>
<path d="M8.5638 8.27091L12 11.7071V14C12 15.1046 11.1046 16 10 16H2C0.89543 16 0 15.1046 0 14V13.7071L3.57751 10.1296L6.13857 11.6662L8.5638 8.27091Z" fill="white"/>
</svg>
