<svg width="12" height="12" viewBox="0 0 12 12" fill="none" xmlns="http://www.w3.org/2000/svg">
<path d="M2.49308 4.82063L1.12132 6.19239C-0.0502524 7.36396 -0.0502525 9.26345 1.12132 10.435C2.29289 11.6066 4.19239 11.6066 5.36396 10.435L7.19239 8.6066C8.36396 7.43503 8.36396 5.53553 7.19239 4.36396C6.94445 4.11602 6.66391 3.92055 6.36457 3.77756L5.77817 4.36396C5.7172 4.42494 5.66574 4.49183 5.6238 4.56279C5.93924 4.65318 6.23682 4.8226 6.48528 5.07106C7.26633 5.85211 7.26633 7.11844 6.48528 7.89949L4.65685 9.72792C3.87581 10.509 2.60948 10.509 1.82843 9.72792C1.04738 8.94687 1.04738 7.68054 1.82843 6.89949L2.62103 6.10689C2.50884 5.68676 2.46619 5.25193 2.49308 4.82063Z" fill="white"/>
<path d="M4.36396 2.94974C3.19239 4.12132 3.19239 6.02081 4.36396 7.19238C4.6119 7.44032 4.89244 7.63579 5.19178 7.77878L5.96737 7.00319C5.63903 6.9155 5.32866 6.74287 5.07107 6.48528C4.29002 5.70423 4.29002 4.4379 5.07107 3.65685L6.8995 1.82842C7.68054 1.04738 8.94687 1.04738 9.72792 1.82842C10.509 2.60947 10.509 3.8758 9.72792 4.65685L8.93531 5.44946C9.04751 5.86958 9.09016 6.30441 9.06327 6.73572L10.435 5.36396C11.6066 4.19239 11.6066 2.29289 10.435 1.12132C9.26346 -0.0502559 7.36396 -0.0502556 6.19239 1.12132L4.36396 2.94974Z" fill="white"/>
</svg>
