<svg width="95" height="28" viewBox="0 0 95 28" fill="none" xmlns="http://www.w3.org/2000/svg">
<path d="M11.5 9.5C11.5 8.5 16.392 1.5 15 1.5C13.608 1.5 9.03623 1.944 8.17223 2.448C7.33223 2.952 6.91223 3.744 6.91223 4.824C6.91223 6.144 8.01623 7.644 10.2242 9.324C11.1362 10.02 12.0482 10.74 12.9602 11.484C13.8722 12.204 14.6522 13.044 15.3002 14.004C15.9482 14.94 16.2722 15.828 16.2722 16.668C16.2722 17.508 16.1282 18.276 15.8402 18.972C15.5762 19.644 15.1202 20.34 14.4722 21.06C13.8242 21.78 12.8162 22.368 11.4482 22.824C10.0802 23.28 8.54423 23.508 6.84023 23.508C5.13623 23.508 1 23.5 0 23.5C2 21 7.00001 14 8.00003 13C8.04803 13 2.17223 21.396 2.48423 21.492C3.46823 21.756 4.45223 21.888 5.43623 21.888C7.45223 21.888 9.08423 21.48 10.3322 20.664C11.6042 19.848 12.2402 18.804 12.2402 17.532C12.2402 16.092 11.2082 14.544 9.14423 12.888C8.28023 12.192 7.41623 11.496 6.55223 10.8C4.48823 9.144 3.45623 7.524 3.45623 5.94C3.45623 4.932 3.87623 3.948 4.71623 2.988C6.56423 0.852 11.836 0.792 17.5 0L11.5 9.5Z" fill="#2EDB12"/>
<path d="M20.4774 27.276L27.0294 12.564H29.0934L22.6854 27.276H20.4774ZM22.9254 22.572L18.1494 12.564H20.6694L24.6774 21.444L22.9254 22.572Z" fill="black"/>
<path d="M33.4888 12.564L33.6808 14.988L33.5848 14.604C33.9048 13.868 34.4248 13.284 35.1448 12.852C35.8648 12.404 36.6968 12.18 37.6408 12.18C38.5848 12.18 39.3528 12.46 39.9448 13.02C40.5528 13.564 40.8648 14.276 40.8808 15.156V22.5H38.6248V15.948C38.6088 15.404 38.4488 14.964 38.1448 14.628C37.8568 14.276 37.4008 14.1 36.7768 14.1C36.2008 14.1 35.6808 14.26 35.2168 14.58C34.7528 14.9 34.3848 15.34 34.1128 15.9C33.8568 16.46 33.7288 17.108 33.7288 17.844V22.5H31.4968V12.564H33.4888Z" fill="black"/>
<path d="M49.3704 22.74C48.2344 22.74 47.2584 22.516 46.4424 22.068C45.6264 21.604 44.9944 20.98 44.5464 20.196C44.1144 19.396 43.8984 18.484 43.8984 17.46C43.8984 16.484 44.1464 15.596 44.6424 14.796C45.1384 13.996 45.8024 13.356 46.6344 12.876C47.4664 12.396 48.3944 12.156 49.4184 12.156C50.7304 12.156 51.8184 12.54 52.6824 13.308C53.5464 14.076 54.1304 15.132 54.4344 16.476L46.2504 19.356L45.7224 18.036L52.4424 15.588L51.9624 15.9C51.7704 15.372 51.4504 14.916 51.0024 14.532C50.5544 14.132 49.9704 13.932 49.2504 13.932C48.6424 13.932 48.0984 14.084 47.6184 14.388C47.1384 14.676 46.7624 15.076 46.4904 15.588C46.2184 16.1 46.0824 16.684 46.0824 17.34C46.0824 18.028 46.2264 18.636 46.5144 19.164C46.8024 19.676 47.1944 20.084 47.6904 20.388C48.2024 20.676 48.7784 20.82 49.4184 20.82C49.8504 20.82 50.2664 20.74 50.6664 20.58C51.0824 20.42 51.4664 20.212 51.8184 19.956L52.8504 21.612C52.3544 21.948 51.7944 22.22 51.1704 22.428C50.5624 22.636 49.9624 22.74 49.3704 22.74Z" fill="black"/>
<path d="M59.2231 12.564L59.4391 15.444L59.3191 15.06C59.5751 14.452 59.9431 13.94 60.4231 13.524C60.9191 13.092 61.4311 12.764 61.9591 12.54C62.5031 12.3 62.9751 12.18 63.3751 12.18L63.2551 14.388C62.5031 14.34 61.8391 14.484 61.2631 14.82C60.7031 15.156 60.2551 15.604 59.9191 16.164C59.5991 16.724 59.4391 17.324 59.4391 17.964V22.5H57.2311V12.564H59.2231Z" fill="black"/>
<path d="M70.6087 27.42C69.8727 27.42 69.2247 27.332 68.6647 27.156C68.1047 26.996 67.5927 26.764 67.1287 26.46C66.6807 26.156 66.2487 25.812 65.8327 25.428L67.1287 23.916C67.6567 24.412 68.1927 24.796 68.7367 25.068C69.2807 25.34 69.8887 25.476 70.5607 25.476C71.3127 25.476 71.9447 25.348 72.4567 25.092C72.9847 24.852 73.3847 24.508 73.6567 24.06C73.9287 23.628 74.0647 23.124 74.0647 22.548L74.0887 19.86L74.2807 20.292C73.9927 20.98 73.4727 21.564 72.7207 22.044C71.9687 22.508 71.0567 22.74 69.9847 22.74C69.0727 22.74 68.2327 22.508 67.4647 22.044C66.7127 21.58 66.1047 20.956 65.6407 20.172C65.1927 19.372 64.9687 18.476 64.9687 17.484C64.9687 16.444 65.2087 15.532 65.6887 14.748C66.1687 13.948 66.8007 13.316 67.5847 12.852C68.3687 12.388 69.2247 12.156 70.1527 12.156C71.0327 12.156 71.8327 12.34 72.5527 12.708C73.2887 13.06 73.8247 13.516 74.1607 14.076L74.0407 14.484L74.2807 12.564H76.3207V22.572C76.3207 23.468 76.0887 24.284 75.6247 25.02C75.1607 25.756 74.5047 26.34 73.6567 26.772C72.8087 27.204 71.7927 27.42 70.6087 27.42ZM67.2007 17.436C67.2007 18.076 67.3527 18.66 67.6567 19.188C67.9607 19.716 68.3687 20.132 68.8807 20.436C69.4087 20.74 69.9927 20.892 70.6327 20.892C71.2247 20.892 71.7527 20.788 72.2167 20.58C72.6967 20.356 73.0967 20.06 73.4167 19.692C73.7367 19.308 73.9607 18.868 74.0887 18.372V16.404C73.9447 15.924 73.7047 15.508 73.3687 15.156C73.0327 14.788 72.6327 14.508 72.1687 14.316C71.7047 14.108 71.1927 14.004 70.6327 14.004C69.9927 14.004 69.4087 14.148 68.8807 14.436C68.3687 14.724 67.9607 15.132 67.6567 15.66C67.3527 16.172 67.2007 16.764 67.2007 17.436Z" fill="black"/>
<path d="M81.0164 27.276L87.5684 12.564H89.6324L83.2244 27.276H81.0164ZM83.4644 22.572L78.6884 12.564H81.2084L85.2164 21.444L83.4644 22.572Z" fill="black"/>
<path d="M88.6718 2.03686C88.5629 1.98771 88.4371 1.98771 88.3282 2.03686L82.2345 4.78686C82.0877 4.85309 81.9956 4.99731 82.0002 5.15388C82.0047 5.31045 82.105 5.44945 82.2554 5.50762L88.3491 7.86476C88.446 7.90222 88.554 7.90222 88.6509 7.86476L93.375 6.03741V10.6429C92.9263 10.6429 92.5625 10.9946 92.5625 11.4286V13H95V11.4286C95 10.9946 94.6362 10.6429 94.1875 10.6429V5.72312L94.7446 5.50762C94.895 5.44945 94.9953 5.31045 94.9998 5.15388C95.0044 4.99731 94.9123 4.85309 94.7655 4.78686L88.6718 2.03686Z" fill="#2EDB12"/>
<path d="M85.3926 7.52501C85.287 7.48669 85.1695 7.49261 85.0686 7.54136C84.9676 7.59011 84.8921 7.67729 84.8603 7.78201L84.454 9.11772C84.3949 9.3121 84.4983 9.51808 84.6929 9.59333L88.3491 11.0076C88.446 11.0451 88.554 11.0451 88.6509 11.0076L92.3071 9.59333C92.5017 9.51808 92.6051 9.3121 92.546 9.11772L92.1397 7.78201C92.1079 7.67729 92.0324 7.59011 91.9314 7.54136C91.8305 7.49261 91.713 7.48669 91.6074 7.52501L88.5 8.65185L85.3926 7.52501Z" fill="#2EDB12"/>
</svg>
