<svg width="38" height="38" viewBox="0 0 38 38" fill="none" xmlns="http://www.w3.org/2000/svg">
<circle cx="19" cy="19" r="19" fill="black"/>
<path d="M21.5 16.5C21.5 15.5 26.392 8.5 25 8.5C23.608 8.5 19.0362 8.944 18.1722 9.448C17.3322 9.952 16.9122 10.744 16.9122 11.824C16.9122 13.144 18.0162 14.644 20.2242 16.324C21.1362 17.02 22.0482 17.74 22.9602 18.484C23.8722 19.204 24.6522 20.044 25.3002 21.004C25.9482 21.94 26.2722 22.828 26.2722 23.668C26.2722 24.508 26.1282 25.276 25.8402 25.972C25.5762 26.644 25.1202 27.34 24.4722 28.06C23.8242 28.78 22.8162 29.368 21.4482 29.824C20.0802 30.28 18.5442 30.508 16.8402 30.508C15.1362 30.508 11 30.5 10 30.5C12 28 17 21 18 20C18.048 20 12.1722 28.396 12.4842 28.492C13.4682 28.756 14.4522 28.888 15.4362 28.888C17.4522 28.888 19.0842 28.48 20.3322 27.664C21.6042 26.848 22.2402 25.804 22.2402 24.532C22.2402 23.092 21.2082 21.544 19.1442 19.888C18.2802 19.192 17.4162 18.496 16.5522 17.8C14.4882 16.144 13.4562 14.524 13.4562 12.94C13.4562 11.932 13.8762 10.948 14.7162 9.988C16.5642 7.852 21.836 7.792 27.5 7L21.5 16.5Z" fill="#2EDB12"/>
</svg>
