<svg width="41" height="41" viewBox="0 0 41 41" fill="none" xmlns="http://www.w3.org/2000/svg">
<path d="M2.49969 40.5711L40.5711 2.49969C41.143 1.92785 41.143 1.00072 40.5711 0.428879C39.9993 -0.14296 39.0721 -0.14296 38.5003 0.428879L0.428879 38.5003C-0.14296 39.0721 -0.14296 39.9993 0.428879 40.5711C1.00072 41.143 1.92785 41.143 2.49969 40.5711Z" fill="black" fill-opacity="0.13"/>
<path d="M8.78571 2.18196e-08C9.59442 2.18196e-08 10.25 0.655583 10.25 1.46429V7.32143H16.1071C16.9158 7.32143 17.5714 7.97701 17.5714 8.78571C17.5714 9.59442 16.9158 10.25 16.1071 10.25H10.25V16.1071C10.25 16.9158 9.59442 17.5714 8.78571 17.5714C7.97701 17.5714 7.32143 16.9158 7.32143 16.1071V10.25H1.46429C0.655583 10.25 2.18196e-08 9.59442 2.18196e-08 8.78571C2.18196e-08 7.97701 0.655583 7.32143 1.46429 7.32143H7.32143V1.46429C7.32143 0.655583 7.97701 2.18196e-08 8.78571 2.18196e-08Z" fill="black" fill-opacity="0.13"/>
<path d="M23.4286 32.2143C23.4286 31.4056 24.0842 30.75 24.8929 30.75H39.5357C40.3444 30.75 41 31.4056 41 32.2143C41 33.023 40.3444 33.6786 39.5357 33.6786H24.8929C24.0842 33.6786 23.4286 33.023 23.4286 32.2143Z" fill="black" fill-opacity="0.13"/>
</svg>
