<svg width="48" height="37" viewBox="0 0 48 37" fill="none" xmlns="http://www.w3.org/2000/svg">
<path d="M16.5756 5.99437C20.6761 1.94854 27.3243 1.94854 31.4248 5.99437C32.0106 6.57235 32.9603 6.57235 33.5461 5.99437C34.1319 5.4164 34.1319 4.47931 33.5461 3.90134C28.274 -1.30045 19.7263 -1.30045 14.4542 3.90134C13.8684 4.47931 13.8684 5.4164 14.4542 5.99437C15.04 6.57235 15.9898 6.57235 16.5756 5.99437Z" fill="white" fill-opacity="0.13"/>
<path d="M20.8182 10.1804C22.5756 8.44652 25.4248 8.44652 27.1822 10.1804C27.7679 10.7584 28.7177 10.7584 29.3035 10.1804C29.8893 9.60247 29.8893 8.66539 29.3035 8.08741C26.3745 5.19753 21.6258 5.19753 18.6969 8.08741C18.1111 8.66539 18.1111 9.60247 18.6969 10.1804C19.2827 10.7584 20.2324 10.7584 20.8182 10.1804Z" fill="white" fill-opacity="0.13"/>
<path d="M8.92302 3.97198C8.66105 3.19654 7.81157 2.77747 7.02566 3.03594C6.23974 3.29442 5.815 4.13258 6.07698 4.90801L11.4189 20.72H4.5C2.01472 20.72 0 22.7079 0 25.16V31.08C0 33.5321 2.01472 35.52 4.5 35.52H6C6 36.3374 6.67157 37 7.5 37H13.5C14.3284 37 15 36.3374 15 35.52H33C33 36.3374 33.6716 37 34.5 37H40.5C41.3284 37 42 36.3374 42 35.52H43.5C45.9853 35.52 48 33.5321 48 31.08V25.16C48 22.7079 45.9853 20.72 43.5 20.72H36.5811L41.923 4.90801C42.185 4.13258 41.7603 3.29442 40.9743 3.03594C40.1884 2.77747 39.3389 3.19654 39.077 3.97198L33.4189 20.72H14.5811L8.92302 3.97198ZM7.5 29.6C6.67157 29.6 6 28.9374 6 28.12C6 27.3026 6.67157 26.64 7.5 26.64C8.32843 26.64 9 27.3026 9 28.12C9 28.9374 8.32843 29.6 7.5 29.6ZM21 28.12C21 27.3026 21.6716 26.64 22.5 26.64C23.3284 26.64 24 27.3026 24 28.12C24 28.9374 23.3284 29.6 22.5 29.6C21.6716 29.6 21 28.9374 21 28.12ZM28.5 29.6C27.6716 29.6 27 28.9374 27 28.12C27 27.3026 27.6716 26.64 28.5 26.64C29.3284 26.64 30 27.3026 30 28.12C30 28.9374 29.3284 29.6 28.5 29.6ZM33 28.12C33 27.3026 33.6716 26.64 34.5 26.64C35.3284 26.64 36 27.3026 36 28.12C36 28.9374 35.3284 29.6 34.5 29.6C33.6716 29.6 33 28.9374 33 28.12ZM39 28.12C39 27.3026 39.6716 26.64 40.5 26.64C41.3284 26.64 42 27.3026 42 28.12C42 28.9374 41.3284 29.6 40.5 29.6C39.6716 29.6 39 28.9374 39 28.12Z" fill="white" fill-opacity="0.13"/>
<path d="M25.5002 13.32C25.5002 14.1374 24.8286 14.8 24.0002 14.8C23.1717 14.8 22.5002 14.1374 22.5002 13.32C22.5002 12.5026 23.1717 11.84 24.0002 11.84C24.8286 11.84 25.5002 12.5026 25.5002 13.32Z" fill="white" fill-opacity="0.13"/>
</svg>
