<svg width="748" height="583" viewBox="0 0 748 583" fill="none" xmlns="http://www.w3.org/2000/svg">
<path fill-rule="evenodd" clip-rule="evenodd" d="M747.5 223.001C747.5 288.5 747.5 365 698.926 458.501C650.351 552.001 318.311 583.001 222 583.001C125.689 583.001 -16.7874 561.5 2.33775 341.813C9.82877 255.764 75.4997 155 153.5 108C224.127 65.4432 214 68.5002 391.5 13.5007C543 -10.9998 530.398 3.50003 622.5 21.5C732.898 71.4994 731.5 157.5 747.5 223.001Z" fill="#277709"/>
<path fill-rule="evenodd" clip-rule="evenodd" d="M445.808 70.3124C446.42 60.946 445.713 51.4945 443.717 42.3229L443.674 42.1276L443.674 42.1272C443.335 40.5765 442.987 38.9815 443.299 37.4295C443.99 33.997 447.802 31.931 451.302 32.003C454.803 32.0751 458.046 33.7461 461.143 35.378C475.999 43.2039 491.123 51.2273 502.819 63.2741C503.186 73.0269 500.888 82.6513 498.619 92.1523L498.405 93.0456C488.933 132.757 481.176 172.877 475.164 213.257C474.588 217.127 473.495 221.693 469.825 223.048C467.191 224.021 464.129 222.778 462.259 220.685C460.388 218.593 459.494 215.814 458.87 213.077C457.331 206.325 457.146 199.266 458.328 192.443C459.052 188.269 460.274 184.21 461.497 180.15L461.497 180.15L461.497 180.15L461.497 180.149L461.498 180.149L461.498 180.149L461.498 180.149L461.498 180.148C462.596 176.504 463.694 172.858 464.431 169.129C465.168 165.399 465.54 161.607 465.9 157.822C467.817 137.695 469.444 117.541 470.778 97.3667C470.967 94.5159 471.139 91.5755 470.205 88.8754C468.544 84.0729 463.706 81.0375 458.818 79.6458C457.976 79.4059 457.12 79.2019 456.265 78.9979C454.274 78.5231 452.284 78.0487 450.467 77.1232C447.87 75.8002 445.618 73.2207 445.808 70.3124ZM454.885 69.5426C461.793 71.0004 468.544 73.2017 474.984 76.0962C476.281 76.679 477.644 77.3612 478.345 78.5982C478.917 79.6085 478.95 80.8253 478.967 81.9862C479.169 95.6215 479.212 109.293 477.768 122.853C476.904 130.973 475.509 139.022 474.114 147.07C473.673 149.618 473.232 152.165 472.807 154.715C470.706 167.331 469.015 180.015 467.737 192.741C466.81 201.975 466.132 211.519 469.004 220.343C470.478 220.074 471.045 218.299 471.324 216.827L497.868 76.9198C498.511 73.53 499.153 70.0253 498.395 66.6592C497.069 60.7661 491.838 56.6685 486.795 53.3437C477.087 46.9432 466.753 41.4919 455.988 37.0929C455.093 47.883 454.725 58.7167 454.885 69.5426ZM468.535 161.428C473.395 136.477 475.59 111.008 475.072 85.5938C475.033 83.6743 474.93 81.6116 473.756 80.0925C472.896 78.9793 471.581 78.3274 470.297 77.7523C465.476 75.5925 460.407 73.9854 455.221 72.9725C453.72 72.6793 451.514 72.997 451.58 74.5248L470.218 82.2265C471.311 82.6782 472.475 83.1891 473.093 84.1979C473.699 85.1872 473.64 86.43 473.561 87.5875L468.535 161.428ZM451.191 34.6249C449.655 33.6063 447.435 34.6563 446.579 36.2891C445.723 37.9218 445.853 39.8764 446.047 41.7096C446.332 44.3993 446.707 47.0904 447.081 49.7819C448.121 57.2492 449.161 64.7194 448.277 72.1711C449.687 72.6549 451.26 71.6615 451.944 70.3373C452.628 69.0132 452.646 67.4578 452.648 65.9676L452.695 39.0957C452.698 37.4533 452.56 35.5324 451.191 34.6249ZM464.992 219.737C464.145 213.096 463.924 206.376 464.33 199.694C464.548 196.121 464.944 192.56 465.341 189.001L465.341 189C465.865 184.292 466.389 179.586 466.499 174.853C462.628 186.375 461.166 198.7 462.235 210.807C462.513 213.956 463.028 217.259 464.992 219.737ZM467.122 168.047C467.745 167.768 468.006 166.893 467.639 166.318C467.007 166.63 466.738 167.513 467.09 168.124L467.122 168.047ZM360.86 70.1402C395.695 79.9622 430.528 91.3449 461.334 110.343C464.008 111.992 467.003 114.434 466.504 117.535C428.079 95.0877 384.881 82.3854 342.17 69.8899C370.738 81.3957 401.648 94.9742 415.613 122.424C421.523 134.039 423.767 147.133 425.526 160.046C430.755 198.438 432.354 237.325 430.293 276.017L480.091 251.813C484.378 249.73 488.877 247.463 491.466 243.46C493.889 239.713 494.246 235.038 494.485 230.582C495.883 204.488 495.615 178.305 493.683 152.245C499.258 176.335 501.729 201.142 501.017 225.858C500.824 232.551 500.24 239.686 496.154 244.99C493.186 248.844 488.741 251.221 484.434 253.483L438.291 277.724C420.466 287.088 398.999 289.283 379.647 283.719L421.176 281.557C422.306 281.498 423.516 281.41 424.402 280.707C425.698 279.679 425.8 277.782 425.791 276.127C425.585 235.221 425.366 194.152 419.402 153.683C417.523 140.932 414.922 127.872 407.761 117.156C399.874 105.354 387.305 97.6336 374.908 90.7201C352.671 78.3193 328.544 67.0281 303.089 67.5767C282.075 68.0296 262.067 76.5617 243.661 86.7116C229.047 94.7699 214.154 105.01 208.38 120.667C205.19 129.316 205.142 138.766 205.296 147.983C205.843 180.855 208.471 213.691 213.157 246.231C213.667 249.775 213.319 254.647 209.796 255.283C205.289 220.39 200.777 185.435 199.566 150.274C199.215 140.079 199.19 129.588 202.832 120.059C207.74 107.217 218.702 97.6919 230.063 89.9486C258.391 70.6416 292.929 58.8869 326.997 62.7036C338.495 63.9917 349.724 67.0004 360.86 70.1402ZM382.541 458.886C383.539 468.302 384.592 477.919 388.594 486.501L382.044 428.197C381.774 425.797 381.854 422.742 384.062 421.764C385.93 443.709 388.715 465.576 392.408 487.289C392.846 489.867 388.974 491.34 386.8 489.888C384.625 488.436 383.93 485.609 383.435 483.041C379.832 464.331 377.85 445.308 377.521 426.257C372.933 427.161 369.716 431.608 368.788 436.191C367.86 440.774 368.755 445.507 369.648 450.096L378.28 494.415C379.625 501.325 380.971 508.465 379.486 515.346C373.776 489.276 369.185 462.96 365.731 436.496C321.917 463.288 265.462 468.27 217.633 449.566C207.187 445.481 196.813 440.067 189.913 431.224C184.478 424.258 181.578 415.609 180.058 406.904C174.662 375.992 185.72 344.46 200.729 316.901C201.12 316.184 201.515 315.464 201.911 314.741C207.282 304.945 212.878 294.737 212.45 283.656C212.422 282.924 212.371 282.178 212.319 281.427C212.081 277.977 211.836 274.429 213.801 271.695C216.436 276.489 217.439 282.16 216.609 287.567C261.968 285.615 307.394 285.222 352.78 286.389C353.31 288.475 350.286 289.445 348.134 289.412C305.779 288.781 263.404 289.502 221.095 291.576C219.755 291.641 218.348 291.728 217.212 292.442C216.017 293.192 215.321 294.509 214.679 295.766C202.671 319.26 190.624 343.098 184.82 368.837C181.835 382.073 180.692 396.56 186.809 408.672C189.13 413.266 192.412 417.324 196.077 420.939C215.751 440.345 245.212 446.294 272.843 445.83C290.478 445.534 308.074 442.999 325.075 438.305C343.099 433.329 361.074 425.486 373.377 411.405C380.601 403.136 385.512 393.123 389.812 383.019C398.023 363.728 404.321 343.623 408.584 323.095C411.253 323.657 411.29 327.431 410.674 330.088C403.054 362.964 394.196 398.007 369.096 420.565C346.426 440.939 314.481 447.258 284.049 448.962C266.47 449.947 248.614 449.639 231.588 445.158C214.561 440.677 198.303 431.712 187.494 417.814C190.647 429.835 201.326 438.414 212.444 443.966C241.636 458.542 276.107 457.772 308.34 452.705C329.812 449.33 351.851 443.79 368.561 429.89C382.844 418.009 391.947 401.041 398.799 383.771C406.383 364.656 411.644 344.62 414.429 324.244C416.164 323.148 417.449 326.213 417.229 328.253C413.473 363.174 400.094 397.01 378.953 425.056L382.541 458.886ZM362.24 518.6C360.377 515.455 359.178 511.919 358.743 508.29L356.067 517.358L349.314 491.601C348.79 489.603 347.515 487.103 345.494 487.532C343.53 487.95 343.309 490.645 343.602 492.632C345.073 502.624 347.879 512.419 351.922 521.674L344.74 515.372C344.391 518.372 345.18 521.491 346.915 523.964C343.175 521.208 338.157 520.269 333.673 521.485C336.877 525.937 341.227 529.557 346.188 531.899L340.119 523.428C345.024 526.26 350.164 528.686 355.467 530.674L350.325 524.226L356.679 525.987C351.817 514.928 346.865 503.445 346.982 491.365C348.822 501.192 351.516 510.86 355.023 520.223C355.618 521.81 356.278 523.451 357.544 524.577C358.81 525.702 360.868 526.127 362.194 525.072C363.225 524.253 363.526 522.84 363.76 521.543L366.622 505.674L369.765 525.354C372.148 519.335 379.898 517.826 386.372 517.786C394.921 517.733 403.533 518.674 412.123 519.614H412.123H412.124H412.124H412.124H412.124H412.125H412.125H412.125C427.611 521.307 443.024 522.992 457.861 518.828C457.426 521.121 456.663 523.353 455.605 525.434C467.577 523.692 479.692 522.927 491.789 523.15C496.897 523.244 502.021 523.513 507.145 523.782H507.146H507.146H507.147H507.147H507.148H507.148H507.149H507.149C520.695 524.493 534.242 525.204 547.515 522.688L459.425 521.914C461.08 521.818 462.347 519.895 461.784 518.336C461.22 516.778 459.015 516.111 457.682 517.096C456.815 514.341 452.921 513.117 450.634 514.879C451.96 510.791 454.582 507.135 458.028 504.567C454.138 504.359 450.188 505.549 447.062 507.873L456.537 464.021C455.736 463.332 454.4 463.795 453.808 464.671C453.222 465.537 453.157 466.64 453.095 467.685L453.093 467.718C452.206 482.692 446.925 497.379 438.075 509.49L434.6 499.435L429.619 511.446C427.362 509.697 424.16 509.256 421.514 510.329C422.189 512.897 424.244 515.057 426.774 515.862L427.953 512.703L435.734 517.915C432.76 514.799 432.116 509.7 434.221 505.942L438.93 513.84L448.057 495.789C448.108 503.036 445.002 509.887 441.957 516.465C445.266 513.873 448.111 510.689 450.316 507.11C452.444 510.879 450.12 515.932 446.418 518.176C442.717 520.419 438.139 520.541 433.815 520.358C427.217 520.079 420.569 519.251 413.929 518.423L413.928 518.423C399.017 516.564 384.146 514.71 369.981 519.101L367.939 500.267C364.818 505.906 362.866 512.187 362.24 518.6ZM451.114 519.103C450.794 518.72 450.796 518.106 451.118 517.726L451.376 517.823C451.808 516.788 453.628 516.873 453.962 517.944C453.123 518.549 452.137 518.95 451.114 519.103ZM499.24 319.002C488.981 313.816 476.772 315.216 465.384 316.777C462.166 317.218 458.885 317.68 455.97 319.113C453.055 320.546 450.517 323.141 450.014 326.35C422.201 322.877 395.547 310.635 374.791 291.798C370.286 287.71 365.689 281.889 367.715 276.152C368.352 274.349 369.591 272.828 370.88 271.415C380.557 260.805 393.899 254.424 406.888 248.299C392.167 249.59 378.042 256.75 368.299 267.861C366.066 270.407 364.007 273.252 363.238 276.55C361.34 284.694 367.665 292.334 373.996 297.798C394.195 315.231 419.602 326.553 446.072 329.915C447.659 330.116 447.741 332.348 447.596 333.942C446.951 341.03 450.815 347.947 456.17 352.635C461.525 357.323 468.232 360.138 474.888 362.659C495.5 370.467 516.891 376.217 538.64 379.796C540.076 380.033 542.05 379.921 542.353 378.497C537.334 375.176 531.293 373.911 525.387 372.675L525.365 372.67L525.299 372.656L524.809 372.554L524.431 372.474C509.455 369.322 494.681 365.216 480.226 360.189C474.296 358.127 468.352 355.875 463.182 352.314C458.011 348.752 453.62 343.722 451.967 337.665C451.15 334.674 452.258 330.21 455.335 330.586C467.866 332.118 480.74 333.631 492.975 330.523C495.744 329.82 498.631 328.759 500.318 326.454C502.006 324.149 501.79 320.29 499.24 319.002ZM467.634 327.282C463.333 326.542 458.939 326.343 454.588 326.693C456.702 322.678 461.866 321.621 466.362 321.009C476.134 319.678 486.311 318.38 495.675 321.478C496.293 321.683 496.953 321.944 497.288 322.503C497.728 323.239 497.407 324.241 496.781 324.828C496.155 325.414 495.302 325.68 494.476 325.911C485.777 328.342 476.536 328.814 467.634 327.282ZM325.302 529.858C332.5 529.657 339.742 531.248 346.193 534.448C344.468 536.927 341.003 537.274 337.986 537.388L259.136 540.381C258.413 540.291 258.277 539.175 258.789 538.657C259.301 538.139 260.101 538.073 260.829 538.037L337.801 534.283C333.354 533.875 329.015 532.339 325.302 529.858ZM173.558 269.084C172.434 274.458 176.98 280.191 182.455 280.598C173.502 294.09 157.375 300.749 141.88 305.449C132.209 308.383 121.481 310.792 112.262 306.652C111.117 307.351 112.338 309.073 113.546 309.655C122.518 313.978 133.155 311.569 142.698 308.721C156.694 304.545 171.12 299.146 180.643 288.073C181.033 287.62 181.421 287.153 181.812 286.683L181.812 286.683L181.813 286.682L181.813 286.682C184.264 283.736 186.82 280.664 190.505 279.982C202.37 277.788 212.252 270.357 222.016 263.014L222.017 263.013L222.018 263.013L222.018 263.013L222.019 263.012C224.233 261.347 226.441 259.687 228.664 258.093C242.184 248.403 257.179 240.776 272.972 235.555C274.366 235.094 276.063 234.238 275.939 232.774C256.358 234.571 239.244 246.248 223.462 257.977L222.936 258.368C212.211 266.341 201.003 274.673 187.806 276.649C192.117 273.249 191.207 265.393 186.344 262.846C181.48 260.299 174.681 263.71 173.558 269.084ZM177.212 272.368C176.331 269.761 177.69 266.66 180.104 265.34C180.789 264.965 181.556 264.715 182.337 264.715C184.915 264.712 186.797 267.469 186.814 270.047C186.831 272.625 185.524 275.003 184.254 277.246C181.283 276.791 178.173 275.216 177.212 272.368ZM470.203 214.926C469.473 214.114 469.698 213.019 469.93 211.885C470.094 211.084 470.262 210.263 470.101 209.509C469.961 208.854 469.579 208.297 469.196 207.738C468.857 207.243 468.518 206.747 468.343 206.181C468.383 205.433 469.383 205.05 470.065 205.36C470.747 205.67 471.128 206.402 471.366 207.112C472.235 209.704 471.789 212.7 470.203 214.926ZM404.197 158.052C406.021 153.727 409.638 149.891 414.25 149.013C415.742 148.729 415.696 146.268 414.388 145.495C413.08 144.722 411.401 145.179 410.029 145.832C403.64 148.873 399.606 155.567 398.025 162.465C396.445 169.362 396.968 176.545 397.499 183.601L400.324 221.108C400.42 222.383 400.537 223.722 401.247 224.786C402.693 226.952 405.795 227.02 408.395 226.855L421.553 226.019C418.628 223.728 414.703 222.763 411.05 223.438C408.916 223.832 406.773 222.424 405.643 220.573C404.512 218.721 404.181 216.504 403.901 214.353C402.067 200.277 401.394 186.05 401.891 171.863C402.056 167.172 402.372 162.378 404.197 158.052ZM437.793 490.971C437.046 491.513 436.297 490.278 436.188 489.361C431.103 446.619 430.336 403.495 429.575 360.457L429.062 331.444C429.047 330.617 429.059 329.712 429.59 329.079C430.504 327.989 432.428 328.488 433.226 329.666C434.025 330.843 434.026 332.369 434 333.791C433.216 376.142 433.731 418.576 437.786 460.739C437.835 461.252 437.885 461.765 437.935 462.279C438.864 471.857 439.808 481.579 437.793 490.971ZM395.518 221.547C394.405 220.935 393.031 221.281 391.812 221.642C335.44 238.315 279.196 255.506 223.782 275.128C222.744 275.495 221.558 276.024 221.32 277.099C221.068 278.237 222.139 279.324 223.285 279.535C224.431 279.745 225.591 279.336 226.684 278.933C282.219 258.504 338.59 240.347 395.608 224.523C396.832 224.183 396.632 222.159 395.518 221.547Z" fill="black"/>
<path fill-rule="evenodd" clip-rule="evenodd" d="M596.366 476.587C595.054 477.163 593.633 477.7 592.22 477.457C590.807 477.214 589.486 475.888 589.769 474.483C592.364 461.636 589.106 447.724 581.078 437.364C578.264 433.733 574.915 430.538 572.173 426.853C570.445 424.531 568.909 421.61 569.785 418.852C571.031 414.926 576.052 413.972 580.161 413.692C589.714 413.041 599.266 412.39 608.818 411.738C613.22 411.438 618.289 411.394 621.227 414.685C629.406 423.846 645.347 424.461 654.208 415.958C655.579 414.642 657.306 417.261 657.251 419.161C657.08 425.134 654.618 431.013 650.483 435.325C649.507 436.343 648.259 437.34 646.857 437.194C645.455 437.048 644.42 435.034 645.538 434.176C647.937 432.333 650.38 430.445 652.061 427.931C653.743 425.417 654.559 422.121 653.412 419.323C647.241 427.129 641.012 434.888 634.724 442.6C623.822 455.972 612.162 469.649 596.366 476.587ZM613.596 437.24C612.027 437.674 610.353 437.341 608.786 436.898C597.512 433.712 587.125 424.903 575.592 426.965C589.039 437.795 596.179 455.955 593.709 473.044C602.57 471.146 609.566 464.532 615.842 457.995C625.13 448.321 633.95 438.196 642.259 427.668C636.287 427.619 630.337 425.896 625.262 422.746C618.993 424.298 619.821 435.519 613.596 437.24ZM621.784 419.453C618.049 415.05 611.337 415.186 605.585 415.691C598.084 416.35 590.582 417.009 583.08 417.668C580.034 417.935 576.536 418.47 574.948 421.083C587.932 423.801 600.591 428.07 612.569 433.771C614.11 428.932 617.198 424.599 621.269 421.563C621.726 421.221 622.25 420.783 622.19 420.215C622.158 419.924 621.973 419.676 621.784 419.453V419.453Z" fill="white"/>
<path fill-rule="evenodd" clip-rule="evenodd" d="M631.529 242.416C625.807 240.241 622.694 234.159 620.481 228.452C618.267 222.746 616.148 216.516 611.174 212.949C607.697 226.797 602.406 240.187 595.481 252.672C594.666 254.142 593.734 255.687 592.205 256.385C591.019 256.927 589.657 256.868 588.354 256.795C571.996 255.874 555.67 254.356 539.423 252.242C537.694 252.018 536.285 253.903 536.321 255.646C536.357 257.389 537.369 258.942 538.346 260.387C542.21 266.103 546.073 271.82 549.937 277.537C551.806 280.303 553.787 283.172 556.719 284.768C560.638 286.9 565.439 286.331 569.795 285.365C592.772 280.268 612.567 266.091 631.099 251.582C632.263 250.67 633.803 249.712 635.109 250.406C636.248 251.012 636.477 252.643 635.94 253.816C635.403 254.989 634.325 255.806 633.289 256.574C613.374 271.327 592.446 286.524 567.995 290.565C563.263 291.348 558.096 291.616 553.986 289.145C551.558 287.686 549.749 285.41 548.03 283.158C544.1 278.009 540.352 272.722 536.793 267.311C534.923 264.467 533.069 261.498 532.433 258.154C530.751 249.3 537.888 241.346 544.942 235.736C561.157 222.839 580.143 213.444 600.232 208.375C603.788 207.478 607.558 206.718 611.081 207.738C616.799 209.392 620.218 215.177 622.4 220.716C624.581 226.254 626.283 232.311 630.644 236.363C631.639 237.288 632.804 238.155 633.249 239.439C633.693 240.724 632.884 242.521 631.529 242.416M592.59 245.043C598.506 234.617 603.085 223.434 606.18 211.853C602.865 211.489 599.584 212.608 596.456 213.764C586.575 217.412 576.89 221.59 567.455 226.274C557.488 231.222 547.513 236.981 540.798 245.854C554.289 247.36 567.78 248.865 581.27 250.37C583.811 250.654 586.557 250.897 588.763 249.606C590.497 248.59 591.598 246.79 592.59 245.043V245.043Z" fill="white"/>
<path fill-rule="evenodd" clip-rule="evenodd" d="M65.6083 314.457C54.3091 309.938 40.8438 311.278 30.6568 317.935C29.6706 318.58 28.2527 317.861 27.7644 316.789C27.2762 315.717 27.4588 314.47 27.7086 313.318C30.9621 298.319 43.9231 286.841 58.337 281.567C72.7509 276.293 88.5172 276.278 103.839 277.179C105.36 277.269 106.949 277.388 108.245 278.186C109.542 278.985 110.415 280.692 109.768 282.071C103.741 294.929 99.2008 308.484 96.2669 322.378C95.7911 324.631 93.4608 326.126 91.1658 326.314C88.8707 326.501 86.622 325.653 84.5392 324.671C78.0482 321.61 72.2716 317.122 65.6083 314.457ZM66.9 299.28C65.8929 300.098 64.319 299.666 63.3714 298.779C62.4239 297.893 61.8839 296.666 61.1391 295.604C57.144 289.905 47.9759 290.378 42.5415 294.726C37.1072 299.074 34.4775 305.945 32.0828 312.48C48.026 305.555 67.6626 308.04 81.378 318.718C83.2506 320.176 85.1086 321.819 87.4146 322.38C89.7205 322.942 92.6254 321.933 93.2095 319.633C96.3298 307.344 100.175 295.24 104.718 283.403C96.0007 294.239 77.6935 290.51 66.9 299.28ZM63.4308 292.731C64.3261 293.856 65.9516 294.155 67.3666 293.901C68.7817 293.647 70.0673 292.942 71.3858 292.369C75.9251 290.396 80.9529 289.956 85.8196 289.053C90.6863 288.151 95.706 286.624 99.132 283.052C91.4021 283.029 83.6722 283.005 75.9422 282.982C68.174 282.959 59.8028 283.123 53.5622 287.749C57.3612 287.888 61.0633 289.757 63.4308 292.731Z" fill="white"/>
<path fill-rule="evenodd" clip-rule="evenodd" d="M428.627 313.421C428.609 306.622 428.591 299.822 428.573 293.023C428.567 291.071 428.562 289.118 428.557 287.165C428.553 285.819 428.779 284.134 430.059 283.715C431.027 283.399 432.092 284.094 432.545 285.007C432.997 285.919 432.992 286.982 432.977 288C432.835 297.489 432.694 306.977 432.553 316.465C432.533 317.83 432.304 319.509 431.026 319.988C428.895 318.781 428.634 315.87 428.627 313.421H428.627Z" fill="black"/>
<path fill-rule="evenodd" clip-rule="evenodd" d="M415.053 307.128C414.069 307.56 413.561 305.938 413.713 304.874C414.258 301.067 414.803 297.252 415.73 293.519C416.306 291.195 417.137 288.749 419.056 287.318C420.976 285.887 424.272 286.137 425.211 288.34C425.666 289.406 425.477 290.625 425.268 291.766C423.976 298.83 422.235 305.811 420.06 312.654C419.968 312.945 419.867 313.248 419.647 313.458C419.112 313.971 418.146 313.626 417.776 312.984C417.405 312.342 417.453 311.551 417.512 310.812C418.396 310.747 418.808 309.708 419.02 308.847C419.887 305.334 420.754 301.82 421.621 298.306C422.295 295.572 422.91 292.458 421.341 290.12C419.729 291.113 419.123 293.121 418.643 294.953C417.678 298.638 416.712 302.323 415.747 306.008C415.631 306.448 415.47 306.945 415.053 307.128L415.053 307.128Z" fill="black"/>
</svg>
