<svg width="56" height="64" viewBox="0 0 56 64" fill="none" xmlns="http://www.w3.org/2000/svg">
<path fill-rule="evenodd" clip-rule="evenodd" d="M28 0C25.242 0 20.6295 1.06137 16.2866 2.23861C11.8463 3.44227 7.37265 4.85844 4.74111 5.71713C2.54501 6.43374 0.88394 8.37436 0.564926 10.7684C-1.82157 28.6777 3.71216 41.9475 10.424 50.7279C13.7673 55.1017 17.4009 58.3615 20.4924 60.5415C22.037 61.6307 23.4685 62.4662 24.6842 63.0384C25.8074 63.5672 27.0092 64 28 64C28.9908 64 30.1926 63.5672 31.3158 63.0384C32.5315 62.4662 33.9631 61.6307 35.5076 60.5415C38.5991 58.3615 42.2327 55.1017 45.576 50.7279C52.2878 41.9475 57.8216 28.6777 55.4351 10.7684C55.1161 8.37436 53.455 6.43374 51.2589 5.71713C48.6273 4.85843 44.1538 3.44227 39.7134 2.23861C35.3705 1.06137 30.758 0 28 0ZM28 20C31.3137 20 34 22.6863 34 26C34 28.6124 32.3304 30.8349 30 31.6586L31.5398 39.6202C31.7784 40.8543 30.8331 42 29.5761 42H26.4239C25.1669 42 24.2216 40.8543 24.4602 39.6202L26 31.6586C23.6696 30.8349 22 28.6124 22 26C22 22.6863 24.6863 20 28 20Z" fill="white" fill-opacity="0.13"/>
</svg>
