<svg width="16" height="15" viewBox="0 0 16 15" fill="none" xmlns="http://www.w3.org/2000/svg">
<path d="M13 1.5C13 0.671573 13.6716 0 14.5 0C15.3284 0 16 0.671573 16 1.5V12.5C16 13.3284 15.3284 14 14.5 14C13.6716 14 13 13.3284 13 12.5V12.2862C10.8381 11.045 8.51034 10.4425 6.088 10.2026L6.49282 12.9148C6.60959 13.5293 6.13842 14.101 5.5103 14.101H4.96173C4.56378 14.101 4.20477 13.8652 4.04585 13.5024L2.19627 10.0116C2.12888 10.0106 2.06149 10.0097 1.9941 10.0089C0.895613 9.99602 0 9.106 0 8V6C0 4.89424 0.8949 4.00372 1.99207 3.98669C2.7454 3.975 3.66574 3.95309 4.47475 3.91218C7.51826 3.75829 10.623 3.06333 13 1.71298V1.5ZM14 1.5V12.5C14 12.7761 14.2239 13 14.5 13C14.7761 13 15 12.7761 15 12.5V1.5C15 1.22386 14.7761 1 14.5 1C14.2239 1 14 1.22386 14 1.5ZM13 2.84952C10.6557 4.05548 7.79147 4.69185 5 4.88269V9.11546C5.17999 9.12639 5.35894 9.13836 5.53676 9.15147C8.10519 9.3408 10.6302 9.89637 13 11.145V2.84952ZM4 9.06447V4.93444C3.31951 4.96141 2.60833 4.97725 2.00759 4.98657C1.44811 4.99526 1 5.44891 1 6V8C1 8.55085 1.44754 9.00241 2.0058 9.00895C2.17394 9.01091 2.34203 9.0136 2.51006 9.01698C3.00713 9.02699 3.50376 9.04307 4 9.06447ZM3.34295 10.0399L4.95194 13.0766L4.96173 13.101L5.5103 13.101L5.50751 13.0875L5.06481 10.1214C4.86968 10.109 4.67295 10.0978 4.47475 10.0878C4.09741 10.0687 3.72016 10.0527 3.34295 10.0399Z" fill="black"/>
</svg>
