<svg width="60" height="60" viewBox="0 0 60 60" fill="none" xmlns="http://www.w3.org/2000/svg">
<path fill-rule="evenodd" clip-rule="evenodd" d="M0 0H3.75V56.25H60V60H0V0ZM37.5 13.125C37.5 12.0895 38.3395 11.25 39.375 11.25H54.375C55.4105 11.25 56.25 12.0895 56.25 13.125V28.125C56.25 29.1605 55.4105 30 54.375 30C53.3395 30 52.5 29.1605 52.5 28.125V18.3776L38.9512 34.9373C38.6157 35.3473 38.1225 35.5963 37.5934 35.6227C37.0643 35.6491 36.5488 35.4504 36.1742 35.0758L26.4758 25.3774L12.7664 44.2278C12.1573 45.0653 10.9847 45.2505 10.1472 44.6414C9.3097 44.0323 9.12455 42.8597 9.73362 42.0222L24.7336 21.3972C25.0562 20.9537 25.5567 20.6736 26.1033 20.6307C26.65 20.5879 27.1881 20.7864 27.5758 21.1742L37.3608 30.9592L50.4183 15H39.375C38.3395 15 37.5 14.1605 37.5 13.125Z" fill="white" fill-opacity="0.13"/>
</svg>
