<svg width="12" height="16" viewBox="0 0 12 16" fill="none" xmlns="http://www.w3.org/2000/svg">
<path d="M7.29289 0H2C0.89543 0 0 0.895431 0 2V14C0 15.1046 0.89543 16 2 16H10C11.1046 16 12 15.1046 12 14V4.70711C12 4.44189 11.8946 4.18754 11.7071 4L8 0.292893C7.81246 0.105357 7.55811 0 7.29289 0ZM7.5 3.5V1.5L10.5 4.5H8.5C7.94772 4.5 7.5 4.05228 7.5 3.5ZM2.5 9C2.22386 9 2 8.77614 2 8.5C2 8.22386 2.22386 8 2.5 8H9.5C9.77614 8 10 8.22386 10 8.5C10 8.77614 9.77614 9 9.5 9H2.5ZM2 10.5C2 10.2239 2.22386 10 2.5 10H9.5C9.77614 10 10 10.2239 10 10.5C10 10.7761 9.77614 11 9.5 11H2.5C2.22386 11 2 10.7761 2 10.5ZM2.5 13C2.22386 13 2 12.7761 2 12.5C2 12.2239 2.22386 12 2.5 12H6.5C6.77614 12 7 12.2239 7 12.5C7 12.7761 6.77614 13 6.5 13H2.5Z" fill="black"/>
</svg>
