<svg width="15" height="14" viewBox="0 0 15 14" fill="none" xmlns="http://www.w3.org/2000/svg">
<path d="M0.464844 8.40379C0.72157 8.40379 0.929688 8.61516 0.929688 8.87591V11.2365C0.929688 11.758 1.34592 12.1808 1.85938 12.1808H13.0156C13.5291 12.1808 13.9453 11.758 13.9453 11.2365V8.87591C13.9453 8.61516 14.1534 8.40379 14.4102 8.40379C14.6669 8.40379 14.875 8.61516 14.875 8.87591V11.2365C14.875 12.2795 14.0425 13.125 13.0156 13.125H1.85938C0.832471 13.125 0 12.2795 0 11.2365V8.87591C0 8.61516 0.208118 8.40379 0.464844 8.40379Z" fill="white"/>
<path d="M7.10881 0.138281C7.29034 -0.0460937 7.58466 -0.0460937 7.76619 0.138281L10.5553 2.97101C10.7368 3.15538 10.7368 3.45432 10.5553 3.63869C10.3737 3.82307 10.0794 3.82307 9.89787 3.63869L7.90234 1.61192V9.91455C7.90234 10.1753 7.69423 10.3867 7.4375 10.3867C7.18077 10.3867 6.97266 10.1753 6.97266 9.91455V1.61192L4.97713 3.63869C4.7956 3.82307 4.50128 3.82307 4.31974 3.63869C4.13821 3.45432 4.13821 3.15538 4.31974 2.97101L7.10881 0.138281Z" fill="white"/>
</svg>
