<svg width="12" height="16" viewBox="0 0 12 16" fill="none" xmlns="http://www.w3.org/2000/svg">
<path d="M7.29289 0H2C0.89543 0 0 0.895431 0 2V14C0 15.1046 0.89543 16 2 16H10C11.1046 16 12 15.1046 12 14V4.70711C12 4.44189 11.8946 4.18754 11.7071 4L8 0.292893C7.81246 0.105357 7.55811 0 7.29289 0ZM7.5 3.5V1.5L10.5 4.5H8.5C7.94772 4.5 7.5 4.05228 7.5 3.5ZM4 6.8831C4 6.49445 4.42399 6.25439 4.75725 6.45435L8.28542 8.57125C8.60909 8.76546 8.60909 9.23455 8.28542 9.42875L4.75725 11.5457C4.42399 11.7456 4 11.5056 4 11.1169V6.8831Z" fill="black"/>
</svg>
