<svg width="16" height="13" viewBox="0 0 16 13" fill="none" xmlns="http://www.w3.org/2000/svg">
<path d="M10.7904 11.2652L9.17617 9.65102C8.80858 9.78215 8.41263 9.85355 8 9.85355C6.067 9.85355 4.5 8.28655 4.5 6.35355C4.5 5.94093 4.5714 5.54498 4.70253 5.17739L2.64112 3.11597C0.938717 4.63257 0 6.35355 0 6.35355C0 6.35355 3 11.8536 8 11.8536C9.01539 11.8536 9.9483 11.6267 10.7904 11.2652Z" fill="#278218"/>
<path d="M5.20967 1.44189C6.05172 1.08037 6.98462 0.853553 8 0.853553C13 0.853553 16 6.35355 16 6.35355C16 6.35355 15.0613 8.07452 13.3589 9.59112L11.2975 7.5297C11.4286 7.16211 11.5 6.76617 11.5 6.35355C11.5 4.42056 9.933 2.85355 8 2.85355C7.58738 2.85355 7.19144 2.92495 6.82386 3.05607L5.20967 1.44189Z" fill="#278218"/>
<path d="M5.52485 5.99971C5.50847 6.1153 5.5 6.23344 5.5 6.35355C5.5 7.73426 6.61929 8.85355 8 8.85355C8.12012 8.85355 8.23825 8.84508 8.35385 8.8287L5.52485 5.99971Z" fill="#278218"/>
<path d="M10.4752 6.70737L7.64618 3.8784C7.76176 3.86202 7.87989 3.85355 8 3.85355C9.38071 3.85355 10.5 4.97284 10.5 6.35355C10.5 6.47366 10.4915 6.59179 10.4752 6.70737Z" fill="#278218"/>
<path d="M13.6464 12.7071L1.64645 0.707107L2.35355 0L14.3536 12L13.6464 12.7071Z" fill="#278218"/>
</svg>
