<svg width="12" height="16" viewBox="0 0 12 16" fill="none" xmlns="http://www.w3.org/2000/svg">
<path d="M7.29289 0H2C0.89543 0 0 0.895431 0 2V14C0 15.1046 0.89543 16 2 16H10C11.1046 16 12 15.1046 12 14V4.70711C12 4.44189 11.8946 4.18754 11.7071 4L8 0.292893C7.81246 0.105357 7.55811 0 7.29289 0ZM7.5 3.5V1.5L10.5 4.5H8.5C7.94772 4.5 7.5 4.05228 7.5 3.5ZM3.48507 6.87873L4.52103 11.0226L5.51761 7.36844C5.57694 7.15091 5.77452 7 6 7C6.22547 7 6.42305 7.15091 6.48238 7.36844L7.47896 11.0226L8.51493 6.87873C8.5819 6.61083 8.85337 6.44795 9.12126 6.51493C9.38916 6.5819 9.55204 6.85337 9.48507 7.12126L7.98507 13.1213C7.9299 13.3419 7.73275 13.4975 7.50531 13.5C7.27787 13.5024 7.07746 13.351 7.01761 13.1316L6 9.40029L4.98238 13.1316C4.92253 13.351 4.72212 13.5024 4.49468 13.5C4.26724 13.4975 4.07009 13.3419 4.01493 13.1213L2.51493 7.12126C2.44795 6.85337 2.61083 6.5819 2.87873 6.51493C3.14663 6.44795 3.41809 6.61083 3.48507 6.87873Z" fill="#103F91"/>
</svg>
