<svg width="12" height="16" viewBox="0 0 12 16" fill="none" xmlns="http://www.w3.org/2000/svg">
<path d="M3.5 9.43845V8.5H4.5V9.43845C4.5 9.52021 4.51003 9.60166 4.52986 9.68098L4.92947 11.2794L4 11.8991L3.07053 11.2794L3.47015 9.68098C3.48998 9.60166 3.5 9.52021 3.5 9.43845Z" fill="white"/>
<path d="M7.29289 0H2C0.89543 0 0 0.895431 0 2V14C0 15.1046 0.89543 16 2 16H10C11.1046 16 12 15.1046 12 14V4.70711C12 4.44189 11.8946 4.18754 11.7071 4L8 0.292893C7.81246 0.105357 7.55811 0 7.29289 0ZM7.5 3.5V1.5L10.5 4.5H8.5C7.94772 4.5 7.5 4.05228 7.5 3.5ZM3.5 3V2H2.5L2.5 1H4L4 2H5V3H4V4H5V5H4V6H5V7H3.5V6H2.5V5H3.5V4H2.5V3H3.5ZM3.5 7.5H4.5C5.05229 7.5 5.5 7.94772 5.5 8.5V9.43845L5.89961 11.0369C6.00211 11.4469 5.83581 11.8771 5.48417 12.1115L4.5547 12.7311C4.2188 12.9551 3.7812 12.9551 3.4453 12.7311L2.51583 12.1115C2.1642 11.8771 1.99789 11.4469 2.10039 11.0369L2.5 9.43845V8.5C2.5 7.94772 2.94772 7.5 3.5 7.5Z" fill="white"/>
</svg>
